<svg width="200" height="200" viewBox="0 0 200 200" fill="none" xmlns="http://www.w3.org/2000/svg">
<path d="M74.0839 128.356C69.5155 128.914 66.2651 133.071 66.8238 137.639C67.3825 142.207 71.5387 145.458 76.1071 144.899C80.6754 144.34 83.9259 140.184 83.3672 135.616C82.8085 131.047 78.6522 127.797 74.0839 128.356Z" fill="white"/>
<path d="M46.2341 106.575C45.6754 102.007 48.9258 97.8508 53.4942 97.2921C58.0625 96.7334 62.2188 99.9839 62.7775 104.552C63.3362 109.121 60.0857 113.277 55.5174 113.835C50.949 114.394 46.7928 111.144 46.2341 106.575Z" fill="white"/>
<path d="M65.9911 62.1821C61.4228 62.7408 58.1723 66.8971 58.731 71.4654C59.2897 76.0338 63.446 79.2842 68.0143 78.7255C72.5827 78.1668 75.8331 74.0106 75.2744 69.4422C74.7157 64.8739 70.5595 61.6234 65.9911 62.1821Z" fill="white"/>
<path d="M130.811 77.3423C130.252 72.774 133.502 68.6177 138.071 68.059C142.639 67.5004 146.795 70.7508 147.354 75.3192C147.913 79.8875 144.662 84.0438 140.094 84.6025C135.526 85.1611 131.369 81.9107 130.811 77.3423Z" fill="white"/>
<path d="M99.9384 90.655C95.37 91.2137 92.1196 95.37 92.6783 99.9383C93.2369 104.507 97.3932 107.757 101.962 107.198C106.53 106.64 109.78 102.483 109.222 97.9151C108.663 93.3468 104.507 90.0963 99.9384 90.655Z" fill="white"/>
<path d="M94.9421 58.6414C94.3835 54.0731 97.6339 49.9168 102.202 49.3581C106.771 48.7994 110.927 52.0499 111.486 56.6182C112.044 61.1866 108.794 65.3428 104.225 65.9015C99.6571 66.4602 95.5008 63.2098 94.9421 58.6414Z" fill="white"/>
<path fill-rule="evenodd" clip-rule="evenodd" d="M18.774 98.0307C19.8615 53.1708 57.1092 17.6861 101.969 18.7736C146.829 19.8611 182.314 57.1088 181.226 101.969C181.157 104.81 180.202 107.405 178.443 109.542C176.76 111.586 174.582 112.927 172.432 113.824C168.249 115.57 163.005 116.118 157.816 116.153C135.41 116.305 115.949 135.577 114.677 158.306C114.38 163.609 113.476 169.002 111.194 173.24C110.012 175.435 108.353 177.523 106.028 179.034C103.648 180.581 100.918 181.296 98.0311 181.226C53.1712 180.138 17.6866 142.891 18.774 98.0307ZM101.666 31.2699C63.7078 30.3498 32.1905 60.3752 31.2704 98.3336C30.3502 136.292 60.3756 167.809 98.3341 168.73C98.9015 168.743 99.1114 168.621 99.2143 168.554C99.3727 168.451 99.7397 168.147 100.188 167.314C101.166 165.498 101.934 162.298 102.197 157.607C103.817 128.65 128.371 103.852 157.731 103.654C162.415 103.622 165.702 103.088 167.617 102.289C168.293 102.007 168.609 101.768 168.73 101.659C169.647 63.7039 139.623 32.19 101.666 31.2699Z" fill="white"/>
</svg>
